# xmcd
#
# Track frame offsets:
# 150
# 13618
# 29659
# 43515
# 59156
# 73306
# 90581
# 107731
# 124081
# 134011
# 143431
# 162322
# 180285
# 204022
# 215923
# 218013
# 219600
# 221350
# 222875
# 224900
# 226775
# 228750
# 230175
# 232750
# 234500
# 236075
# 237725
# 239525
# 241225
# 243000
# 244875
# 246725
#
# Disc length: 3312 seconds
#
# Revision: 0
# Processed by: cddbd v1.5.2PL0 Copyright (c) Steve Scherf et al.
# Submitted via: Audion 3.0.2 (http://www.panic.com/audion/)
#
DISCID=e60cee20
DTITLE=senjyu - keiba
DYEAR=1900
DGENRE=
TTITLE0=1
TTITLE1=2
TTITLE2=3
TTITLE3=4
TTITLE4=5
TTITLE5=6
TTITLE6=7
TTITLE7=8
TTITLE8=9
TTITLE9=1
TTITLE10=01
TTITLE11=02
TTITLE12=030
TTITLE13=04
TTITLE14=05
TTITLE15=06
TTITLE16=07
TTITLE17=08
TTITLE18=09
TTITLE19=20
TTITLE20=21
TTITLE21=22
TTITLE22=23
TTITLE23=24
TTITLE24=25
TTITLE25=26
TTITLE26=27
TTITLE27=28
TTITLE28=29
TTITLE29=30
TTITLE30=31
TTITLE31=32
EXTD=
EXTT0=
EXTT1=
EXTT2=
EXTT3=
EXTT4=
EXTT5=
EXTT6=
EXTT7=
EXTT8=
EXTT9=
EXTT10=
EXTT11=
EXTT12=
EXTT13=
EXTT14=
EXTT15=
EXTT16=
EXTT17=
EXTT18=
EXTT19=
EXTT20=
EXTT21=
EXTT22=
EXTT23=
EXTT24=
EXTT25=
EXTT26=
EXTT27=
EXTT28=
EXTT29=
EXTT30=
EXTT31=
PLAYORDER=
